# xmcd
#
# Track frame offsets:
#	150
#	11325
#	38475
#	60655
#	85862
#	106470
#	126750
#	150052
#	175650
#	196500
#	234910
#	259050
#	264600
#	273450
#	282900
#
# Disc length: 3997 seconds
#
# Revision: 1
# Processed by: cddbd v1.5.1PL0 Copyright (c) Steve Scherf et al.
# Submitted via: CDex 1.50Beta5
#
DISCID=b30f9b0f
DTITLE=プレストン(サイモン) - J・S・バッハ オルガン名曲集
DYEAR=1900
DGENRE=Classical
TTITLE0=プレストン(サイモン)/トッカータとフーガ ニ短調 BWV565 Toccata,Adagio
TTITLE1=プレストン(サイモン)/Fugue
TTITLE2=プレストン(サイモン)/コラール《目を覚ませと呼ぶ声が聞こえ》 BWV645
TTITLE3=トッカータ、アダージョとフーガ ハ長調 BWV564 Toccata
TTITLE4=Adagio
TTITLE5=Fugue
TTITLE6=幻想曲(前奏曲)とフーガ ト短調 BWV542 Fantasy
TTITLE7=Fugue
TTITLE8=コラール《来れ、異教徒の救い主よ》 BWV659
TTITLE9=パッサカリアとフーガ ハ短調 BWV582 Passacaglia
TTITLE10=Fugue
TTITLE11=コラール《甘き喜びのうちに》 BWV608
TTITLE12=コラール《イエスよ、わが喜びよ》 BWV610
TTITLE13=コラール《主イエス・キリストよ、われ汝に呼ばわる》 BWV639
TTITLE14=フーガ ト短調 BWV578 《小フーガ》
EXTD=
EXTT0=
EXTT1=
EXTT2=
EXTT3=
EXTT4=
EXTT5=
EXTT6=
EXTT7=
EXTT8=
EXTT9=
EXTT10=
EXTT11=
EXTT12=
EXTT13=
EXTT14=
PLAYORDER=
